<svg height="28px" viewBox="0 0 32 32" width="28px" xmlns="http://www.w3.org/2000/svg"><path d="M24 1a7 7 0 1 0 7 7 7 7 0 0 0-7-7Zm3.16 6.25-3.46 3a1 1 0 0 1-.65.25 1 1 0 0 1-.66-.25l-1.55-1.34a1 1 0 0 1 1.32-1.51l.89.77 2.79-2.42a1 1 0 1 1 1.32 1.5ZM1 18v12a1 1 0 0 0 1 1h2V17H2a1 1 0 0 0-1 1ZM23.64 20.29a2.57 2.57 0 0 0 .14-.79 2.5 2.5 0 0 0-2.5-2.5H17v-3a3 3 0 1 0-6 .06 12.27 12.27 0 0 1-1.1 5.09l-.43.85H8v-2a1 1 0 0 0-1-1H6v14h1a1 1 0 0 0 1-1v-1.34h.39a2.66 2.66 0 0 0 2.46 1.65h3.72a2.46 2.46 0 0 0 1.71.69h5a2.5 2.5 0 0 0 2.5-2.5 2.45 2.45 0 0 0-.29-1.15 2.51 2.51 0 0 0 .83-1.85 2.59 2.59 0 0 0-.25-1.07 2.47 2.47 0 0 0-.43-4.14Z" fill="#00b7ff" class="fill-000000"></path></svg>